<svg id="Layer_1" data-name="Layer 1" xmlns="http://www.w3.org/2000/svg" viewBox="0 0 20.8902 25.63207">
  <defs>
    <style>
     <style>
  <style>
  .cls-1 {
    fill: #143c65;
  }

  #part1,
  #part2,
  #part3 {
    opacity: 0;
    animation: pulse 3s ease-in-out infinite;
  }

  #part1 {
    animation-delay: 0s;
  }

  #part2 {
    animation-delay: 0.7s;
  }

  #part3 {
    animation-delay: 1.4s;
  }

  @keyframes pulse {
    0% {
      opacity: 0.2;
    }
    50% {
      opacity: 1;
    }
    100% {
      opacity: 0.2;
    }
  }
</style>
</style>
    </style>
  </defs>

  <!-- Part 1: Top-right piece -->
  <path id="part1" class="cls-1" d="M16.77716,19.74828v-.00085c-.00964-.1306-.01719-.2619-.02349-.394l-.00239-.04662c-.0024-.04452-.0046-.08916-.0063-.134-.00756-.20915-.01134-.39659-.01134-.5731V13.70753h5.80307V10.22729H13.25333l.02286,9.28371a19.34652,19.34652,0,0,0,.27588,2.45169l.01159.06355q.03664.20242.07733.40386l.13268.654L16.80153,20.056Z" transform="translate(-13.25333 -10.22729)"/>

  <!-- Part 2: Middle/bottom decorative piece -->
  <path id="part2" class="cls-1" d="M28.10331,27.24375q-.12677.19674-.2592.38944l-.07185.105c-.12582.17988-.24131.3389-.35347.48742-.19194.25577-.39572.50885-.62418.77482l-.07588.086c-.2126.24413-.41827.46725-.629.68256l-.06877.06873c-.18866.19191-.383.37922-.57746.55714-.02153.0196-.04351.03877-.06549.05809l-.05724.05082c-.15359.137-.31373.27451-.48936.41981q-.14641.12073-.29572.23756c-.09906.07755-.19862.15482-.30063.231-.07645.05726-.15384.11338-.231.16881-.1005.07211-.20189.14336-.30516.21377l-.00013-.00015c-.22343-.15173-.423-.29438-.60938-.43534l-.06411-.05c-.19862-.15173-.39478-.30921-.58319-.46823l-.048-.04c-.19276-.16239-.39364-.34213-.615-.55028l-.019-.01778c-.0311-.029-.06215-.05809-.0932-.088-.182-.17456-.36675-.36088-.54962-.55435q-.05242-.05521-.10416-.111c-.20057-.216-.403-.44725-.60177-.688l-.033-.03947c-.02016-.02421-.04037-.0483-.06008-.07279-.209-.25813-.40806-.51934-.59157-.77636l-.03136-.04268c-.10768-.15175-.21291-.30588-.313-.458-.01845-.02787-.0364-.056-.05429-.08428l-.03866-.06047q-.10438-.1619-.20548-.32659c-.03835-.0627-.07576-.12571-.11323-.189q-.08755-.148-.17216-.2983c-.03741-.06579-.0745-.13144-.11065-.19752-.05951-.10933-.117-.2195-.174-.32994l-.03665-.07014c-.01681-.03177-.0335-.06341-.04975-.096-.07846-.15664-.15378-.31453-.2267-.47244-.0199-.04354-.03923-.08736-.05857-.131l-.03721-.084c-.04339-.09827-.08665-.19682-.12809-.29564-.03306-.07868-.06492-.15749-.09647-.23545-.03848-.09618-.0757-.1925-.11543-.2979-.02872-.07545-.05743-.15075-.08489-.22678-.04005-.11058-.07771-.22187-.11675-.33764l-.02431-.07251c-.0182-.05432-.03652-.10849-.05365-.16181q-.04827-.152-.09377-.30517l-.17122-.57758L14.619,25.13347l-.1619.17135.147.37866c.09125.2321.187.46278.28426.68494l.05164.12c.10794.242.22343.48671.35366.74849.0204.041.04131.08175.06228.12248l.01983.03878c.1085.21333.22066.42415.33275.62573l.07462.13606c.13413.23643.27551.47414.42085.70763l.09276.14558c.12966.20423.26392.40749.39969.605l.07852.11464c.15832.22664.32627.45621.49818.681.01776.02338.036.04648.05416.06959l.023.02911c.16153.20886.33149.41954.50662.62755l.04521.05417c.19641.23083.39912.45844.60278.67655l.012.01288c.33778.36143.69572.716,1.06316,1.053l.04862.04534c.03356.03136.06719.06286.1012.09337.3386.304.70384.60809,1.08514.90333.02954.023.05951.04549.08949.06816l.04855.03669q.21.15955.42456.31369c.07406.05334.14855.10611.22242.15734.11984.08372.24125.16546.36272.246l.048.03193c.06858.04562.137.09126.20743.13661.13917.08889.28067.17513.42274.26107.02368.01442.047.02913.0704.04382.03407.02142.06808.04283.103.06355l.884.52186.88344-.52157c.02381-.014.04717-.02885.07041-.04368l.043-.02689c.17789-.10651.356-.217.52941-.32867q.14112-.09114.28-.18451.21036-.14088.41657-.28725l.0728-.05122c.05025-.03528.1005-.07057.1488-.106.19906-.14517.40567-.30237.614-.46742l.11915-.09672c.18577-.14964.37343-.30685.56058-.46951l.01234-.01008.02645-.0224c.01039-.00867.02028-.01777.03445-.03108.23363-.20535.43734-.39139.62349-.56987l.09774-.09672c.16782-.16337.34017-.33765.512-.5181l.01738-.01735.0357-.03625.03206-.03514.01524-.0168c.37336-.39756.73243-.81317,1.06694-1.23508l.10794-.13817c.1386-.178.2738-.35793.40189-.53446l.09295-.12752q.11052-.15456.21738-.3112l.16757-.24539-2.51771-2.51776Z" transform="translate(-13.25333 -10.22729)"/>

  <!-- Part 3: Right/bottom piece -->
  <path id="part3" class="cls-1" d="M24.58357,13.70753H30.6634v4.89218c0,.17889-.00409.37291-.01247.59353-.0017.04339-.0039.08693-.00617.13061l-.00252.04773q-.01049.21415-.02645.42695l-.01486.1859c-.015.16869-.03249.33708-.0529.5066l-.00869.08007c-.02254.17848-.05012.36691-.08413.576-.00573.03528-.012.07041-.01832.1054l-.01153.06441c-.0243.13914-.05025.27758-.07846.417-.01266.06272-.02525.12488-.03879.18744q-.04818.22406-.1029.447l-.02985.1243c-.04647.18254-.09754.36928-.15157.55378l-.04749.15524q-.06186.20453-.12947.40764-.03069.09239-.0624.1838c-.04748.137-.09717.27352-.14774.40791l-.05315.142q-.06469.16672-.133.33148l-.09194.22131,2.61192,2.61211.258-.52872c.03055-.063.06021-.12668.09465-.20074.09169-.19723.18-.39531.26291-.58961l.02557-.05935c.01222-.02785.02437-.05558.0359-.08329.09735-.23391.19427-.48071.288-.73394.01247-.0336.0245-.06748.0364-.10134l.01977-.05531c.07375-.20437.14585-.4156.2143-.6281l.05391-.16715c.16139-.51626.30346-1.04905.42261-1.58518l.02827-.13046c.11952-.55659.21518-1.1217.28388-1.6766l.00391-.03234c.05837-.47608.09924-.954.1221-1.42476l.0228-9.28371h-9.56Z" transform="translate(-13.25333 -10.22729)"/>
</svg>